<?xml version="1.0" encoding="UTF-8" standalone="no"?>
<!DOCTYPE svg PUBLIC "-//W3C//DTD SVG 20010904//EN"
              "http://www.w3.org/TR/2001/REC-SVG-20010904/DTD/svg10.dtd">

<svg xmlns="http://www.w3.org/2000/svg"
     width="0.48773in" height="0.423313in"
     viewBox="0 0 159 138">
  <path id="Selection #1"
        fill="none" stroke="black" stroke-width="1"
        d="M 27.00,33.00
           C 33.91,35.95 52.68,35.04 61.00,35.00
             61.00,35.00 77.00,34.00 77.00,34.00
             77.00,34.00 109.00,34.00 109.00,34.00
             109.00,34.00 136.00,32.00 136.00,32.00
             129.27,29.24 111.00,29.91 103.00,30.00
             103.00,30.00 88.00,31.00 88.00,31.00
             88.00,31.00 50.00,31.00 50.00,31.00
             50.00,31.00 27.00,33.00 27.00,33.00 Z
           M 27.00,60.00
           C 33.91,62.95 52.68,62.04 61.00,62.00
             61.00,62.00 77.00,61.00 77.00,61.00
             77.00,61.00 109.00,61.00 109.00,61.00
             109.00,61.00 136.00,59.00 136.00,59.00
             129.27,56.24 111.00,56.91 103.00,57.00
             103.00,57.00 88.00,58.00 88.00,58.00
             88.00,58.00 50.00,58.00 50.00,58.00
             50.00,58.00 27.00,60.00 27.00,60.00 Z
           M 27.00,90.00
           C 33.91,92.95 52.68,92.04 61.00,92.00
             61.00,92.00 77.00,91.00 77.00,91.00
             77.00,91.00 109.00,91.00 109.00,91.00
             109.00,91.00 136.00,89.00 136.00,89.00
             129.27,86.24 111.00,86.91 103.00,87.00
             103.00,87.00 88.00,88.00 88.00,88.00
             88.00,88.00 50.00,88.00 50.00,88.00
             50.00,88.00 27.00,90.00 27.00,90.00 Z" />
</svg>
